 <svg version="1.0" xmlns="http://www.w3.org/2000/svg" width="700.000000pt" height="700.000000pt" viewBox="0 0 700.000000 700.000000" preserveAspectRatio="xMidYMid meet">
<metadata>
Ethan Hampton Logo
</metadata>
<g transform="translate(0.000000,700.000000) scale(0.100000,-0.100000)" fill="#000000" stroke="none">
<path d="M968 6964 c-233 -115 -286 -397 -109 -574 64 -64 139 -97 246 -109
52 -6 104 -19 129 -32 60 -30 210 -147 339 -262 305 -272 1277 -1207 1277
-1227 0 -10 -40 -56 -88 -102 -49 -45 -190 -179 -313 -297 -123 -118 -370
-354 -549 -525 -179 -170 -350 -334 -381 -364 -42 -40 -61 -52 -72 -46 -24 14
-412 388 -506 489 -47 49 -104 121 -129 158 -40 63 -45 76 -52 155 -9 101 -20
137 -54 197 -121 205 -431 240 -599 66 -44 -45 -87 -113 -87 -138 0 -7 -4 -13
-10 -13 -6 0 -10 -36 -10 -89 0 -79 3 -94 31 -147 37 -71 88 -126 149 -162 69
-41 108 -53 200 -59 94 -6 115 -15 210 -82 190 -134 590 -532 590 -587 0 -38
-71 -117 -435 -484 l-353 -355 -5 -260 c-6 -343 -13 -368 -141 -556 -108 -158
-91 -337 44 -463 190 -178 494 -123 606 110 34 71 36 80 32 157 -4 95 -27 150
-102 242 -91 112 -107 175 -113 455 l-5 226 224 214 c123 118 367 352 543 520
176 168 426 406 555 530 1141 1091 1046 1003 1067 991 37 -20 235 -229 231
-243 -1 -9 -131 -139 -288 -289 -157 -151 -673 -647 -1148 -1102 l-862 -828 0
-394 c0 -590 -15 -712 -102 -826 -22 -30 -57 -88 -76 -129 -34 -70 -36 -82
-37 -170 0 -70 5 -107 18 -140 58 -140 215 -237 370 -228 107 7 180 39 253
112 77 77 104 143 104 252 0 104 -34 175 -140 289 -118 127 -113 101 -118 635
l-4 446 244 235 c134 129 353 340 488 469 135 129 459 440 720 690 768 737
803 770 814 770 6 0 132 -119 281 -263 l270 -264 -52 -104 c-29 -57 -82 -160
-118 -229 -37 -69 -100 -190 -142 -270 -42 -80 -92 -176 -113 -215 -47 -89
-130 -246 -210 -400 -34 -66 -79 -151 -100 -190 -20 -38 -63 -119 -95 -180
-115 -219 -317 -587 -428 -780 -44 -77 -85 -149 -91 -160 -46 -84 -151 -246
-174 -267 -15 -13 -54 -32 -87 -42 -112 -33 -189 -97 -242 -199 -24 -46 -28
-63 -27 -147 0 -89 2 -99 34 -158 39 -74 100 -131 179 -169 49 -24 68 -27 156
-27 92 -1 105 2 166 30 161 77 235 223 209 411 -18 125 -7 179 80 388 39 94
311 645 405 820 23 44 82 157 130 250 48 94 111 215 140 270 29 55 88 170 132
255 44 85 114 220 156 300 183 354 389 774 393 803 14 97 -211 335 -1421 1497
-1009 969 -1360 1326 -1445 1467 -28 46 -36 70 -41 134 -5 58 -15 94 -39 143
-40 80 -88 125 -182 171 -66 33 -78 35 -162 34 -82 -1 -98 -5 -158 -35z"></path>
<path d="M2097 6970 c-165 -60 -257 -184 -257 -346 0 -89 31 -166 93 -231 85
-90 166 -123 299 -123 56 0 81 -5 108 -21 63 -38 1040 -1033 1845 -1879 549
-576 735 -781 735 -805 0 -28 -285 -610 -555 -1130 -48 -93 -126 -244 -173
-335 -46 -91 -101 -196 -122 -235 -21 -38 -66 -124 -100 -190 -281 -538 -438
-802 -527 -886 -41 -39 -57 -49 -173 -102 -41 -19 -94 -52 -117 -75 -111 -108
-138 -282 -65 -415 33 -62 122 -142 181 -164 25 -9 50 -20 56 -25 12 -11 181
-10 203 1 9 5 37 19 62 30 90 41 158 116 194 215 16 41 18 66 12 165 -4 67 -2
138 3 168 13 66 73 226 137 363 75 161 365 735 549 1085 161 306 470 919 560
1110 100 212 119 253 161 358 24 60 44 123 44 141 0 28 -24 57 -177 221 -193
206 -538 564 -1088 1130 -534 550 -838 869 -1090 1145 -83 91 -213 247 -258
308 l-46 63 1 92 c1 127 -24 190 -106 273 -48 47 -75 65 -126 83 -36 12 -73
27 -82 32 -31 16 -101 8 -181 -21z"></path>
<path d="M3575 6991 c-3 -5 -20 -13 -38 -16 -84 -19 -183 -98 -233 -187 -27
-49 -29 -61 -29 -158 l0 -105 55 -105 c62 -116 239 -390 333 -515 191 -251
530 -636 947 -1074 215 -227 882 -922 1080 -1127 l127 -131 6 -378 c4 -208 7
-705 7 -1103 l0 -725 73 -95 c326 -426 354 -481 342 -656 -11 -171 60 -294
214 -368 60 -30 74 -33 161 -32 85 0 102 3 162 31 83 39 144 99 186 183 28 57
32 76 32 143 0 42 -4 85 -10 95 -5 9 -17 35 -27 57 -42 95 -167 184 -292 207
-88 16 -143 52 -264 177 -142 147 -248 300 -266 386 -29 142 -34 316 -38 1248
l-4 957 -218 223 c-433 443 -631 664 -631 705 0 36 79 128 261 307 162 158
270 242 339 263 19 6 81 12 136 15 129 6 208 40 279 119 73 81 90 126 90 238
0 112 -18 161 -86 235 -82 89 -183 129 -309 123 -189 -8 -350 -167 -350 -346
0 -65 -17 -103 -88 -197 -58 -77 -492 -515 -510 -515 -23 0 -313 282 -310 301
3 17 100 113 548 538 297 282 498 451 610 514 36 20 63 26 141 30 82 4 106 10
163 38 231 113 278 413 89 579 -26 23 -61 49 -77 57 -86 45 -214 56 -302 26
-155 -52 -246 -170 -263 -342 -8 -72 -13 -86 -57 -153 -28 -43 -125 -151 -234
-262 -275 -280 -765 -735 -817 -759 -34 -15 -82 22 -304 243 -212 211 -289
312 -328 427 -40 118 -25 188 58 279 124 135 123 345 0 479 -44 47 -131 105
-159 105 -8 0 -28 7 -44 15 -31 16 -141 21 -151 6z"></path>
</g>
</svg>
